<svg viewBox="0 0 657.3 53.6" xmlns="http://www.w3.org/2000/svg">
<path d="m3.8 53.1c-1 0-1.8-.2-2.6-.6-.8-.5-1.2-1.1-1.2-2v-47.5c0-.8.4-1.4 1.1-1.9.7-.4 1.5-.6 2.3-.6h25.3c.9 0 1.5.4 1.9 1.1s.6 1.5.6 2.2c0 .9-.2 1.7-.6 2.4s-1 1-1.8 1h-21v16.5h11.2c.8 0 1.4.3 1.8.9s.6 1.3.6 2.2c0 .7-.2 1.3-.6 2-.4.6-1 1-1.9 1h-11.3v20.8c0 .9-.4 1.5-1.2 1.9-.7.4-1.6.6-2.6.6z"/>
<path d="m30.2 53.1c-.7 0-1.4-.1-2.2-.4s-1.4-.7-1.9-1.1c-.5-.5-.7-1-.7-1.6 0-.1 0-.4.1-.6l14.4-46.8c.3-.9.9-1.5 1.8-1.9s1.9-.6 3-.6 2.1.2 3.1.6c.9.4 1.5 1.1 1.8 1.9l14.3 46.7c.1.3.1.5.1.6 0 .6-.3 1.1-.8 1.6s-1.1.9-1.9 1.2c-.7.3-1.5.4-2.2.4-.6 0-1.2-.1-1.6-.4-.5-.2-.8-.6-1-1.2l-3-10.2h-17.7l-2.9 10.2c-.1.6-.5 1-1 1.2s-1 .4-1.7.4zm7.3-18h14.4l-7.2-24.7z"/>
<path d="m73.1 53.1c-1 0-1.8-.2-2.4-.7s-.9-1.1-.9-1.7v-47.7c0-.8.4-1.4 1.1-1.9.7-.4 1.5-.6 2.3-.6h13.1c2.6 0 5 .3 7.2 1s4 1.9 5.3 3.7 2 4.4 2 7.7c0 3-.5 5.5-1.6 7.5s-2.6 3.4-4.5 4.2c1.5.6 2.8 1.3 3.9 2.3 1.1.9 2 2.2 2.6 3.7.6 1.6.9 3.6.9 6v1.4c0 3.7-.6 6.6-1.9 8.9-1.2 2.2-3 3.8-5.1 4.8-2.2 1-4.6 1.5-7.3 1.5h-14.7zm4.2-31.6h8.6c2.4 0 4.3-.6 5.4-1.9 1.2-1.2 1.8-3.1 1.8-5.5 0-1.6-.3-3-.9-4s-1.5-1.8-2.6-2.2c-1.1-.5-2.4-.7-3.9-.7h-8.5v14.3zm0 24.8h9c2.6 0 4.6-.7 6-2.1s2.1-3.7 2.1-6.8v-1.2c0-3.2-.7-5.4-2.1-6.7s-3.4-1.9-6-1.9h-9z"/>
<path d="m127.3 53.1c-.8 0-1.6-.2-2.3-.6s-1.1-1.1-1.1-1.9v-47.7c0-.9.4-1.5 1.2-1.9s1.7-.6 2.6-.6c1 0 1.8.2 2.6.6s1.2 1 1.2 1.9v43.4h18.7c.8 0 1.3.3 1.7 1s.6 1.5.6 2.3-.2 1.6-.6 2.3-1 1.1-1.7 1.1h-22.9z"/>
<path d="m159 53.1c-.7 0-1.4-.1-2.2-.4s-1.4-.7-1.9-1.1c-.5-.5-.7-1-.7-1.6 0-.1 0-.4.1-.6l14.3-46.7c.3-.9.9-1.5 1.8-1.9s1.9-.6 3-.6 2.1.2 3.1.6c.9.4 1.5 1.1 1.8 1.9l14.3 46.7c.1.3.1.5.1.6 0 .6-.3 1.1-.8 1.6s-1.1.9-1.9 1.2c-.7.3-1.5.4-2.2.4-.6 0-1.2-.1-1.6-.4-.5-.2-.8-.6-1-1.2l-3-10.2h-17.9l-2.9 10.2c-.1.6-.5 1-1 1.2-.2.1-.7.3-1.4.3zm7.3-18h14.4l-7.2-24.7z"/>
<path d="m201.9 53.1c-1 0-1.8-.2-2.4-.7s-.9-1.1-.9-1.7v-47.7c0-.8.4-1.4 1.1-1.9.7-.4 1.5-.6 2.3-.6h13c2.6 0 5 .3 7.2 1s4 1.9 5.3 3.7 2 4.4 2 7.7c0 3-.5 5.5-1.6 7.5s-2.6 3.4-4.5 4.2c1.5.6 2.8 1.3 3.9 2.3 1.1.9 2 2.2 2.6 3.7.6 1.6.9 3.6.9 6v1.4c0 3.7-.6 6.6-1.9 8.9-1.2 2.2-3 3.8-5.1 4.8-2.2 1-4.6 1.5-7.3 1.5h-14.6zm4.2-31.6h8.6c2.4 0 4.3-.6 5.4-1.9 1.2-1.2 1.8-3.1 1.8-5.5 0-1.6-.3-3-.9-4s-1.5-1.8-2.6-2.2c-1.1-.5-2.4-.7-3.9-.7h-8.5v14.3zm0 24.8h9c2.6 0 4.6-.7 6-2.1s2.1-3.7 2.1-6.8v-1.2c0-3.2-.7-5.4-2.1-6.7s-3.4-1.9-6-1.9h-9z"/>
<path d="m256.5 53.1c-1 0-1.8-.2-2.6-.6s-1.2-1.1-1.2-1.9v-46.4c0-1.4.4-2.4 1.2-3s1.7-.8 2.6-.8 1.7.1 2.4.4 1.3.7 1.9 1.3 1.2 1.5 1.8 2.6l10.1 19.1 10.2-19.1c.6-1.1 1.2-2 1.8-2.6s1.2-1.1 1.8-1.3c.7-.3 1.5-.4 2.4-.4 1 0 1.9.3 2.7.8.8.6 1.2 1.5 1.2 3v46.3c0 .8-.4 1.4-1.2 1.9s-1.7.6-2.6.6c-1 0-1.8-.2-2.6-.6s-1.2-1.1-1.2-1.9v-34.5l-9.6 17.9c-.4.6-.8 1.1-1.3 1.3-.5.3-1 .4-1.5.4-.4 0-.9-.1-1.4-.4-.5-.2-.9-.7-1.2-1.4l-9.6-18.3v35c0 .8-.4 1.4-1.2 1.9s-1.9.7-2.9.7z"/>
<path d="m303.1 53.1c-.7 0-1.4-.1-2.2-.4s-1.4-.7-1.9-1.1c-.5-.5-.7-1-.7-1.6 0-.1 0-.4.1-.6l14.3-46.7c.3-.9.9-1.5 1.8-1.9s1.9-.6 3-.6 2.1.2 3.1.6c.9.4 1.5 1.1 1.8 1.9l14.3 46.7c.1.3.1.5.1.6 0 .6-.3 1.1-.8 1.6s-1.1.9-1.9 1.2c-.7.3-1.5.4-2.2.4-.6 0-1.2-.1-1.6-.4-.5-.2-.8-.6-1-1.2l-3-10.2h-17.9l-2.9 10.2c-.1.6-.5 1-1 1.2-.2.1-.8.3-1.4.3zm7.3-18h14.4l-7.2-24.7z"/>
<path d="m346.4 53.1c-1 0-1.8-.2-2.6-.6s-1.2-1.1-1.2-1.9v-47.7c0-.9.4-1.5 1.2-1.9s1.7-.6 2.6-.6c1 0 1.8.2 2.6.6s1.2 1 1.2 1.9v21.9l17.6-23.3c.5-.7 1.2-1.1 2.2-1.1.6 0 1.3.2 2 .6s1.3.9 1.7 1.5c.5.6.7 1.2.7 1.9 0 .2 0 .4-.1.7s-.2.6-.4.8l-13.8 17.3 16.4 25c.3.4.4.9.4 1.4 0 .6-.2 1.2-.6 1.8s-1 1-1.7 1.4-1.4.5-2.1.5c-.5 0-1-.1-1.5-.3s-.9-.6-1.2-1.1l-14.7-22.2-4.7 5.9v15c0 .8-.4 1.4-1.2 1.9s-1.9.6-2.8.6z"/>
<path d="m385 53.1c-.8 0-1.6-.2-2.3-.6s-1.1-1.1-1.1-1.9v-47.6c0-.8.4-1.4 1.1-1.9s1.5-.6 2.3-.6h25.6c.9 0 1.6.4 1.9 1.1.4.7.6 1.5.6 2.2 0 .9-.2 1.7-.6 2.4s-1.1 1-1.9 1h-21.4v16.5h11.1c.8 0 1.4.3 1.9.9.4.6.6 1.3.6 2.2 0 .7-.2 1.3-.6 2-.4.6-1 1-1.9 1h-11.1v16.6h21.4c.8 0 1.4.3 1.9 1 .4.7.6 1.5.6 2.4 0 .8-.2 1.5-.6 2.2s-1 1.1-1.9 1.1z"/>
<path d="m447.5 53.3c-.6 0-1.2-.2-1.7-.6s-.9-1-1.3-1.6l-10.5-20.6h-7.2v20.1c0 .8-.4 1.4-1.2 1.9s-1.7.6-2.6.6c-1 0-1.8-.2-2.6-.6s-1.2-1.1-1.2-1.9v-47.7c0-.7.2-1.2.7-1.7s1.1-.7 1.9-.7h13.7c3 0 5.8.4 8.3 1.3s4.5 2.4 6 4.5 2.2 5.1 2.2 8.8c0 2.9-.4 5.3-1.3 7.2s-2.1 3.4-3.6 4.6c-1.5 1.1-3.2 2-5.1 2.5l10.1 18.9c.1.1.2.3.2.5s.1.4.1.5c0 .6-.2 1.2-.7 1.8s-1.1 1.1-1.8 1.5c-.9.5-1.6.7-2.4.7zm-20.7-29h8.6c2.7 0 4.8-.6 6.4-1.9s2.4-3.5 2.4-6.6-.8-5.3-2.4-6.6-3.8-1.9-6.4-1.9h-8.6z"/>
<path d="m486.6 53.6c-3.1 0-5.9-.5-8.3-1.4s-4.3-2-5.6-3.3-2-2.6-2-3.8c0-.6.2-1.2.5-1.8s.7-1.2 1.2-1.6c.5-.5 1-.7 1.6-.7.7 0 1.3.3 1.9.8.6.6 1.3 1.2 2.2 2s1.9 1.4 3.2 2 3 .9 5 .9c1.7 0 3.3-.3 4.6-.8 1.4-.6 2.4-1.4 3.2-2.5s1.2-2.6 1.2-4.3c0-1.8-.4-3.3-1.3-4.5-.8-1.2-2-2.2-3.4-3s-2.9-1.6-4.6-2.2c-1.6-.7-3.3-1.4-5-2.2s-3.2-1.7-4.6-2.8-2.5-2.4-3.3-4.1-1.3-3.7-1.3-6.2c0-2.6.5-4.8 1.5-6.6s2.3-3.2 3.9-4.2c1.6-1.1 3.4-1.8 5.4-2.3s3.9-.7 5.8-.7c1.2 0 2.5.1 4 .3s2.9.5 4.3.9 2.5.9 3.5 1.6c.9.7 1.4 1.5 1.4 2.4 0 .5-.1 1-.4 1.7s-.6 1.2-1 1.7c-.5.5-1 .7-1.8.7-.6 0-1.3-.2-2.1-.7s-1.8-.9-3-1.4-2.8-.7-4.9-.7c-1.7 0-3.3.2-4.6.7-1.4.5-2.4 1.2-3.2 2.1s-1.2 2.2-1.2 3.7.4 2.8 1.3 3.8c.8 1 2 1.8 3.3 2.5 1.4.7 2.9 1.4 4.6 2s3.3 1.4 5 2.2 3.2 1.9 4.6 3.1 2.5 2.7 3.4 4.6c.8 1.8 1.3 4.1 1.3 6.9 0 3.5-.7 6.3-2.1 8.6s-3.4 4-5.8 5.1c-2.4 1-5.2 1.5-8.4 1.5z"/>
<path d="m514 53.1c-1 0-1.8-.2-2.6-.6s-1.2-1-1.2-1.9v-47.7c0-.7.3-1.2.8-1.7.6-.5 1.3-.7 2.1-.7h14c2.9 0 5.6.5 8 1.5s4.3 2.7 5.7 5 2.1 5.4 2.1 9.3v.6c0 3.8-.7 6.9-2.2 9.3-1.4 2.3-3.4 4-5.8 5.1s-5.2 1.6-8.2 1.6h-8.9v17.8c0 .9-.4 1.5-1.2 1.9-.8.3-1.6.5-2.6.5zm3.8-26.4h8.9c2.7 0 4.8-.8 6.3-2.3s2.3-3.9 2.3-7.1v-.9c0-3.2-.8-5.5-2.3-7s-3.6-2.3-6.3-2.3h-8.9z"/>
<path d="m547.3 53.1c-.7 0-1.4-.1-2.2-.4s-1.4-.7-1.9-1.1c-.5-.5-.7-1-.7-1.6 0-.1 0-.4.1-.6l14.4-46.8c.3-.9.9-1.5 1.8-1.9s1.9-.6 3-.6 2.1.2 3.1.6c.9.4 1.5 1.1 1.8 1.9l14.3 46.6c.1.3.1.5.1.6 0 .6-.3 1.1-.8 1.6s-1.1.9-1.9 1.2c-.7.3-1.5.4-2.2.4-.6 0-1.2-.1-1.6-.4-.5-.2-.8-.6-1-1.2l-3-10.2h-17.9l-2.7 10.3c-.1.6-.5 1-1 1.2s-1 .4-1.7.4zm7.3-18h14.4l-7.2-24.7z"/>
<path d="m602.2 53.5c-2.9 0-5.5-.5-8-1.6-2.4-1.1-4.4-2.8-5.8-5.1-1.4-2.4-2.2-5.5-2.2-9.4v-21c0-3.9.7-7 2.2-9.4 1.4-2.4 3.4-4.1 5.8-5.1 2.4-1.1 5.1-1.6 8-1.6 3.3 0 6.2.6 8.6 1.7s4.3 2.7 5.7 4.6 2.1 4.2 2.1 6.7c0 1.6-.3 2.7-.9 3.2s-1.6.8-2.9.8c-1.2 0-2.1-.2-2.7-.6-.7-.4-1-1-1.1-1.9 0-.6-.2-1.4-.4-2.2-.2-.9-.6-1.7-1.1-2.6-.5-.7-1.4-1.4-2.5-2s-2.6-.8-4.5-.8c-2.8 0-4.9.8-6.4 2.3s-2.2 3.9-2.2 7v21c0 3.2.8 5.5 2.3 7s3.7 2.3 6.6 2.3c1.8 0 3.3-.3 4.4-.8 1.1-.6 1.9-1.2 2.4-2.1.5-.8.9-1.7 1.1-2.7.2-.9.3-1.8.4-2.6 0-.9.4-1.6 1.1-1.9.7-.4 1.6-.6 2.6-.6 1.3 0 2.3.3 3 .8.6.5.9 1.6.9 3.2 0 2.6-.7 4.9-2.1 6.9s-3.3 3.6-5.7 4.8c-2.5 1.1-5.4 1.7-8.7 1.7z"/>
<path d="m629.1 53.1c-.8 0-1.6-.2-2.3-.6s-1.1-1.1-1.1-1.9v-47.6c0-.8.4-1.4 1.1-1.9s1.5-.6 2.3-.6h25.6c.9 0 1.6.4 1.9 1.1.4.7.6 1.5.6 2.2 0 .9-.2 1.7-.6 2.4s-1.1 1-1.9 1h-21.4v16.5h11.1c.8 0 1.4.3 1.9.9.4.6.6 1.3.6 2.2 0 .7-.2 1.3-.6 2-.4.6-1 1-1.9 1h-11.1v16.6h21.4c.8 0 1.4.3 1.9 1 .4.7.6 1.5.6 2.4 0 .8-.2 1.5-.6 2.2s-1 1.1-1.9 1.1z"/>
</svg>