<svg viewBox="0 0 547 546.8" xmlns="http://www.w3.org/2000/svg">
<path fill="#0e9a48" d="m208.1 485.8v-65.2c2.3-.9 4.6-2 6.8-3.3 31.1-18.3 34.4-70.4 7.3-116.3s-74.2-68.2-105.3-49.9-34.4 70.4-7.3 116.3c4.4 7.4 9.3 14.2 14.5 20.3v48.4l-67-38.3v-240.1l-23.5-15.5c-21.4 39-33.6 83.7-33.6 131.3 0 147.9 117.4 268.3 264.1 273.2v-28.2z"/>
<path fill="#cb2026" d="m130.3 104.2 41 24.3c-.8 6.7-.8 14.1-.8 16.7.4 36.1 49.2 63.5 102.5 63s91.2-32.8 90.9-64.6c-.3-36.1-35-64.3-88.3-65.9-18-.5-35.4 3.1-43.3 4.6l-29.9-19.1 71-40.5 209.4 121.7 24-13.2c-23.1-38-55.8-70.9-97.1-94.6-128-73.9-290.9-32.3-368.3 92.5l23.8 15z"/>
<path fill="#35469d" d="m490 236.5-44.5 23.3c-1.6-.3-11.5-9.5-13.7-10.8-31.5-17.6-77.9 5.7-103.9 52.2-25.9 46.5-23.7 99.8 7.8 117.3 31.5 17.6 78.5-3.5 104.4-50 4.2-7.5 9.8-24.9 12.4-32.6l37.9-21.9-.2 83.3-208.9 122 .1 27.5c44.4-1.2 89.2-13.4 130.3-37.4 127.6-74.8 172.3-236.9 102.3-366l-24 13.2z"/>
</svg>