<?xml version="1.0" encoding="utf-8"?>
<svg version="1.1" xmlns="http://www.w3.org/2000/svg" xmlns:xlink="http://www.w3.org/1999/xlink" viewBox="0 0 1000 1000">
<rect fill="#000" y="112.5" rx="108" width="1000" height="775"/>
<g transform="translate(50,50)scale(.9)">
<rect fill="#fff" y="125" rx="80" width="1000" height="750"/>
<g fill="#43768F">
<rect x="62" y="187" rx="17" width="876" height="63"/>
<rect x="62" y="207" width="876" height="43"/>
<circle cx="282" cy="435" r="94"/>
<path d="M438.2,654.1c0-17.6-1.2-33.9-3.7-49.1c-2.5-15.1-6.4-29.8-11.9-44c-5.5
-14.2-13.8-25.3-24.9-33.4c-11-8.1-24.3-12.2-39.6-12.2c-20.8,20.8-46.2,31.2
-76.2,31.2s-55.4-10.4-76.2-31.2c-15.3,0-28.5,4.1-39.6,12.2c-11.1,8.1-19.4,19.3
-24.9,33.4c-5.5,14.2-9.5,28.8-11.9,44c-2.4,15.2-3.7,31.5-3.7,49.1c0,17.9,5.1,
33.1,15.4,45.6c10.3,12.5,22.5,18.8,36.9,18.8h207.9c14.3,0,26.6-6.2,36.9-18.8
C433.2,687.2,438.2,672,438.2,654.1z"/>
<rect x="500" y="375" width="375" height="63"/>
<rect x="500" y="500" width="190" height="63"/>
<rect x="750" y="500" width="125" height="63"/>
<rect x="500" y="625" width="375" height="63"/>
</g></g>
</svg>
